<svg xmlns="http://www.w3.org/2000/svg" xmlns:xlink="http://www.w3.org/1999/xlink" width="1080" zoomAndPan="magnify" viewBox="0 0 810 989.999987" height="1320" preserveAspectRatio="xMidYMid meet" version="1.0"><path fill="#cad401" d="M 87.019531 320.71875 L 175.570312 630.140625 L 175.570312 557.707031 L 106.179688 315.238281 C 106.015625 314.675781 105.90625 314.105469 105.851562 313.523438 C 105.796875 312.941406 105.796875 312.359375 105.859375 311.777344 C 105.917969 311.195312 106.03125 310.625 106.199219 310.066406 C 106.371094 309.507812 106.589844 308.96875 106.867188 308.453125 C 107.140625 307.9375 107.460938 307.449219 107.828125 306.996094 C 108.199219 306.542969 108.605469 306.128906 109.054688 305.753906 C 109.503906 305.378906 109.984375 305.050781 110.496094 304.769531 C 111.007812 304.488281 111.542969 304.257812 112.101562 304.082031 L 175.570312 284.984375 L 175.570312 264.175781 L 106.359375 285 C 105.464844 285.277344 104.582031 285.597656 103.71875 285.960938 C 102.851562 286.320312 102.007812 286.726562 101.183594 287.167969 C 100.355469 287.613281 99.554688 288.097656 98.773438 288.621094 C 97.996094 289.140625 97.242188 289.699219 96.519531 290.296875 C 95.792969 290.890625 95.097656 291.519531 94.433594 292.179688 C 93.769531 292.84375 93.140625 293.535156 92.542969 294.261719 C 91.945312 294.984375 91.386719 295.734375 90.863281 296.511719 C 90.335938 297.289062 89.851562 298.089844 89.40625 298.914062 C 88.960938 299.738281 88.554688 300.585938 88.1875 301.449219 C 87.824219 302.3125 87.503906 303.191406 87.222656 304.085938 C 86.941406 304.984375 86.707031 305.890625 86.515625 306.808594 C 86.324219 307.726562 86.175781 308.652344 86.074219 309.582031 C 85.972656 310.515625 85.917969 311.449219 85.90625 312.386719 C 85.894531 313.328125 85.925781 314.261719 86.007812 315.195312 C 86.085938 316.132812 86.210938 317.058594 86.378906 317.984375 C 86.550781 318.90625 86.761719 319.816406 87.019531 320.71875 Z M 87.019531 320.71875 " fill-opacity="1" fill-rule="nonzero"/><path fill="#cad401" d="M 703.136719 285 L 633.925781 264.175781 L 633.925781 284.984375 L 697.394531 304.082031 C 697.953125 304.257812 698.488281 304.488281 699 304.769531 C 699.511719 305.050781 699.992188 305.378906 700.441406 305.753906 C 700.890625 306.128906 701.300781 306.542969 701.667969 306.996094 C 702.035156 307.449219 702.355469 307.933594 702.632812 308.453125 C 702.90625 308.96875 703.128906 309.503906 703.296875 310.066406 C 703.464844 310.625 703.582031 311.195312 703.640625 311.777344 C 703.699219 312.359375 703.699219 312.941406 703.644531 313.523438 C 703.59375 314.105469 703.480469 314.675781 703.316406 315.234375 L 633.925781 557.707031 L 633.925781 630.140625 L 722.476562 320.714844 C 722.734375 319.816406 722.949219 318.902344 723.117188 317.980469 C 723.285156 317.058594 723.410156 316.128906 723.488281 315.195312 C 723.570312 314.261719 723.601562 313.324219 723.59375 312.386719 C 723.582031 311.449219 723.523438 310.515625 723.421875 309.582031 C 723.320312 308.648438 723.171875 307.722656 722.980469 306.804688 C 722.789062 305.886719 722.554688 304.980469 722.273438 304.085938 C 721.996094 303.191406 721.671875 302.3125 721.308594 301.449219 C 720.941406 300.582031 720.539062 299.738281 720.089844 298.914062 C 719.644531 298.089844 719.160156 297.289062 718.636719 296.511719 C 718.109375 295.734375 717.550781 294.984375 716.953125 294.257812 C 716.355469 293.535156 715.726562 292.84375 715.0625 292.179688 C 714.398438 291.519531 713.703125 290.890625 712.976562 290.292969 C 712.253906 289.699219 711.5 289.140625 710.722656 288.621094 C 709.941406 288.097656 709.140625 287.613281 708.316406 287.167969 C 707.488281 286.726562 706.644531 286.320312 705.777344 285.960938 C 704.914062 285.597656 704.03125 285.277344 703.136719 285 Z M 703.136719 285 " fill-opacity="1" fill-rule="nonzero"/><path fill="#cad401" d="M 524.320312 260.839844 L 285.175781 260.839844 C 284.523438 260.839844 283.875 260.902344 283.234375 261.03125 C 282.589844 261.15625 281.96875 261.347656 281.363281 261.597656 C 280.757812 261.847656 280.183594 262.15625 279.640625 262.519531 C 279.097656 262.882812 278.59375 263.292969 278.132812 263.757812 C 277.667969 264.21875 277.253906 264.722656 276.890625 265.265625 C 276.527344 265.8125 276.222656 266.386719 275.972656 266.988281 C 275.722656 267.59375 275.53125 268.21875 275.402344 268.859375 C 275.277344 269.5 275.210938 270.148438 275.210938 270.804688 C 275.210938 271.457031 275.277344 272.105469 275.402344 272.746094 C 275.53125 273.386719 275.722656 274.011719 275.972656 274.617188 C 276.222656 275.21875 276.527344 275.792969 276.890625 276.339844 C 277.253906 276.882812 277.667969 277.386719 278.132812 277.847656 C 278.59375 278.3125 279.097656 278.722656 279.640625 279.085938 C 280.183594 279.453125 280.757812 279.757812 281.363281 280.007812 C 281.96875 280.257812 282.589844 280.449219 283.234375 280.574219 C 283.875 280.703125 284.523438 280.765625 285.175781 280.765625 L 524.320312 280.765625 C 524.972656 280.765625 525.621094 280.703125 526.265625 280.574219 C 526.90625 280.449219 527.527344 280.257812 528.132812 280.007812 C 528.738281 279.757812 529.3125 279.453125 529.855469 279.085938 C 530.398438 278.722656 530.902344 278.3125 531.367188 277.847656 C 531.828125 277.386719 532.242188 276.882812 532.605469 276.339844 C 532.96875 275.792969 533.277344 275.21875 533.527344 274.617188 C 533.777344 274.011719 533.964844 273.386719 534.09375 272.746094 C 534.21875 272.105469 534.285156 271.457031 534.285156 270.804688 C 534.285156 270.148438 534.21875 269.5 534.09375 268.859375 C 533.964844 268.21875 533.777344 267.59375 533.527344 266.988281 C 533.277344 266.386719 532.96875 265.8125 532.605469 265.265625 C 532.242188 264.722656 531.828125 264.21875 531.367188 263.757812 C 530.902344 263.292969 530.398438 262.882812 529.855469 262.519531 C 529.3125 262.15625 528.738281 261.847656 528.132812 261.597656 C 527.527344 261.347656 526.90625 261.15625 526.265625 261.03125 C 525.621094 260.902344 524.972656 260.839844 524.320312 260.839844 Z M 524.320312 260.839844 " fill-opacity="1" fill-rule="nonzero"/><path fill="#cad401" d="M 524.320312 300.695312 L 285.175781 300.695312 C 284.523438 300.695312 283.875 300.757812 283.234375 300.886719 C 282.589844 301.015625 281.96875 301.203125 281.363281 301.453125 C 280.757812 301.703125 280.183594 302.011719 279.640625 302.375 C 279.097656 302.738281 278.59375 303.152344 278.132812 303.613281 C 277.667969 304.078125 277.253906 304.582031 276.890625 305.125 C 276.527344 305.667969 276.222656 306.242188 275.972656 306.847656 C 275.722656 307.453125 275.53125 308.074219 275.402344 308.714844 C 275.277344 309.359375 275.210938 310.003906 275.210938 310.660156 C 275.210938 311.3125 275.277344 311.960938 275.402344 312.605469 C 275.53125 313.246094 275.722656 313.867188 275.972656 314.472656 C 276.222656 315.078125 276.527344 315.652344 276.890625 316.195312 C 277.253906 316.738281 277.667969 317.242188 278.132812 317.707031 C 278.59375 318.167969 279.097656 318.582031 279.640625 318.945312 C 280.183594 319.308594 280.757812 319.617188 281.363281 319.867188 C 281.96875 320.117188 282.589844 320.304688 283.234375 320.433594 C 283.875 320.558594 284.523438 320.625 285.175781 320.625 L 524.320312 320.625 C 524.972656 320.625 525.621094 320.558594 526.265625 320.433594 C 526.90625 320.304688 527.527344 320.117188 528.132812 319.867188 C 528.738281 319.617188 529.3125 319.308594 529.855469 318.945312 C 530.398438 318.582031 530.902344 318.167969 531.367188 317.707031 C 531.828125 317.242188 532.242188 316.738281 532.605469 316.195312 C 532.96875 315.652344 533.277344 315.078125 533.527344 314.472656 C 533.777344 313.867188 533.964844 313.246094 534.09375 312.605469 C 534.21875 311.960938 534.285156 311.3125 534.285156 310.660156 C 534.285156 310.003906 534.21875 309.359375 534.09375 308.714844 C 533.964844 308.074219 533.777344 307.453125 533.527344 306.847656 C 533.277344 306.242188 532.96875 305.667969 532.605469 305.125 C 532.242188 304.582031 531.828125 304.078125 531.367188 303.613281 C 530.902344 303.152344 530.398438 302.738281 529.855469 302.375 C 529.3125 302.011719 528.738281 301.703125 528.132812 301.453125 C 527.527344 301.203125 526.90625 301.015625 526.265625 300.886719 C 525.621094 300.757812 524.972656 300.695312 524.320312 300.695312 Z M 524.320312 300.695312 " fill-opacity="1" fill-rule="nonzero"/><path fill="#cad401" d="M 524.320312 340.554688 L 285.175781 340.554688 C 284.523438 340.554688 283.875 340.617188 283.234375 340.746094 C 282.589844 340.871094 281.96875 341.0625 281.363281 341.3125 C 280.757812 341.5625 280.183594 341.867188 279.640625 342.230469 C 279.097656 342.59375 278.59375 343.007812 278.132812 343.472656 C 277.667969 343.933594 277.253906 344.4375 276.890625 344.980469 C 276.527344 345.523438 276.222656 346.097656 275.972656 346.703125 C 275.722656 347.308594 275.53125 347.929688 275.402344 348.574219 C 275.277344 349.214844 275.210938 349.863281 275.210938 350.515625 C 275.210938 351.171875 275.277344 351.820312 275.402344 352.460938 C 275.53125 353.101562 275.722656 353.726562 275.972656 354.332031 C 276.222656 354.933594 276.527344 355.507812 276.890625 356.054688 C 277.253906 356.597656 277.667969 357.101562 278.132812 357.5625 C 278.59375 358.027344 279.097656 358.4375 279.640625 358.800781 C 280.183594 359.164062 280.757812 359.472656 281.363281 359.722656 C 281.96875 359.972656 282.589844 360.164062 283.234375 360.289062 C 283.875 360.417969 284.523438 360.480469 285.175781 360.480469 L 524.320312 360.480469 C 524.972656 360.480469 525.621094 360.417969 526.265625 360.289062 C 526.90625 360.164062 527.527344 359.972656 528.132812 359.722656 C 528.738281 359.472656 529.3125 359.164062 529.855469 358.800781 C 530.398438 358.4375 530.902344 358.027344 531.367188 357.5625 C 531.828125 357.101562 532.242188 356.597656 532.605469 356.054688 C 532.96875 355.507812 533.277344 354.933594 533.527344 354.332031 C 533.777344 353.726562 533.964844 353.101562 534.09375 352.460938 C 534.21875 351.820312 534.285156 351.171875 534.285156 350.515625 C 534.285156 349.863281 534.21875 349.214844 534.09375 348.574219 C 533.964844 347.929688 533.777344 347.308594 533.527344 346.703125 C 533.277344 346.097656 532.96875 345.523438 532.605469 344.980469 C 532.242188 344.4375 531.828125 343.933594 531.367188 343.472656 C 530.902344 343.007812 530.398438 342.59375 529.855469 342.230469 C 529.3125 341.867188 528.738281 341.5625 528.132812 341.3125 C 527.527344 341.0625 526.90625 340.871094 526.265625 340.746094 C 525.621094 340.617188 524.972656 340.554688 524.320312 340.554688 Z M 524.320312 340.554688 " fill-opacity="1" fill-rule="nonzero"/><path fill="#cad401" d="M 524.320312 380.410156 L 285.175781 380.410156 C 284.523438 380.410156 283.875 380.472656 283.234375 380.601562 C 282.589844 380.730469 281.96875 380.917969 281.363281 381.167969 C 280.757812 381.417969 280.183594 381.726562 279.640625 382.089844 C 279.097656 382.453125 278.59375 382.867188 278.132812 383.328125 C 277.667969 383.792969 277.253906 384.292969 276.890625 384.839844 C 276.527344 385.382812 276.222656 385.957031 275.972656 386.5625 C 275.722656 387.164062 275.53125 387.789062 275.402344 388.429688 C 275.277344 389.070312 275.210938 389.71875 275.210938 390.375 C 275.210938 391.027344 275.277344 391.675781 275.402344 392.316406 C 275.53125 392.960938 275.722656 393.582031 275.972656 394.1875 C 276.222656 394.792969 276.527344 395.367188 276.890625 395.910156 C 277.253906 396.453125 277.667969 396.957031 278.132812 397.421875 C 278.59375 397.882812 279.097656 398.296875 279.640625 398.660156 C 280.183594 399.023438 280.757812 399.328125 281.363281 399.578125 C 281.96875 399.832031 282.589844 400.019531 283.234375 400.148438 C 283.875 400.273438 284.523438 400.339844 285.175781 400.339844 L 524.320312 400.339844 C 524.972656 400.339844 525.621094 400.273438 526.265625 400.148438 C 526.90625 400.019531 527.527344 399.832031 528.132812 399.582031 C 528.738281 399.328125 529.3125 399.023438 529.855469 398.660156 C 530.398438 398.296875 530.902344 397.882812 531.367188 397.421875 C 531.828125 396.957031 532.242188 396.453125 532.605469 395.910156 C 532.96875 395.367188 533.277344 394.792969 533.527344 394.1875 C 533.777344 393.582031 533.964844 392.960938 534.09375 392.316406 C 534.21875 391.675781 534.285156 391.027344 534.285156 390.375 C 534.285156 389.71875 534.21875 389.070312 534.09375 388.429688 C 533.964844 387.789062 533.777344 387.164062 533.527344 386.5625 C 533.277344 385.957031 532.96875 385.382812 532.605469 384.839844 C 532.242188 384.292969 531.828125 383.792969 531.367188 383.328125 C 530.902344 382.867188 530.398438 382.453125 529.855469 382.089844 C 529.3125 381.726562 528.738281 381.417969 528.132812 381.167969 C 527.527344 380.917969 526.90625 380.730469 526.265625 380.601562 C 525.621094 380.472656 524.972656 380.410156 524.320312 380.410156 Z M 524.320312 380.410156 " fill-opacity="1" fill-rule="nonzero"/><path fill="#cad401" d="M 524.320312 420.265625 L 285.175781 420.265625 C 284.523438 420.265625 283.875 420.332031 283.234375 420.457031 C 282.589844 420.585938 281.96875 420.773438 281.363281 421.027344 C 280.757812 421.277344 280.183594 421.582031 279.640625 421.945312 C 279.097656 422.308594 278.59375 422.722656 278.132812 423.1875 C 277.667969 423.648438 277.253906 424.152344 276.890625 424.695312 C 276.527344 425.238281 276.222656 425.8125 275.972656 426.417969 C 275.722656 427.023438 275.53125 427.644531 275.402344 428.289062 C 275.277344 428.929688 275.210938 429.578125 275.210938 430.230469 C 275.210938 430.886719 275.277344 431.535156 275.402344 432.175781 C 275.53125 432.816406 275.722656 433.441406 275.972656 434.042969 C 276.222656 434.648438 276.527344 435.222656 276.890625 435.765625 C 277.253906 436.3125 277.667969 436.816406 278.132812 437.277344 C 278.59375 437.738281 279.097656 438.152344 279.640625 438.515625 C 280.183594 438.878906 280.757812 439.1875 281.363281 439.4375 C 281.96875 439.6875 282.589844 439.875 283.234375 440.003906 C 283.875 440.132812 284.523438 440.195312 285.175781 440.195312 L 524.320312 440.195312 C 524.972656 440.195312 525.621094 440.132812 526.265625 440.003906 C 526.90625 439.875 527.527344 439.6875 528.132812 439.4375 C 528.738281 439.1875 529.3125 438.878906 529.855469 438.515625 C 530.398438 438.152344 530.902344 437.738281 531.367188 437.277344 C 531.828125 436.816406 532.242188 436.3125 532.605469 435.765625 C 532.96875 435.222656 533.277344 434.648438 533.527344 434.042969 C 533.777344 433.441406 533.964844 432.816406 534.09375 432.175781 C 534.21875 431.535156 534.285156 430.886719 534.285156 430.230469 C 534.285156 429.578125 534.21875 428.929688 534.09375 428.289062 C 533.964844 427.644531 533.777344 427.023438 533.527344 426.417969 C 533.277344 425.8125 532.96875 425.238281 532.605469 424.695312 C 532.242188 424.152344 531.828125 423.648438 531.367188 423.1875 C 530.902344 422.722656 530.398438 422.308594 529.855469 421.945312 C 529.3125 421.582031 528.738281 421.277344 528.132812 421.027344 C 527.527344 420.773438 526.90625 420.585938 526.265625 420.457031 C 525.621094 420.332031 524.972656 420.265625 524.320312 420.265625 Z M 524.320312 420.265625 " fill-opacity="1" fill-rule="nonzero"/><path fill="#cad401" d="M 524.320312 460.125 L 285.175781 460.125 C 284.523438 460.125 283.875 460.1875 283.234375 460.316406 C 282.589844 460.445312 281.96875 460.632812 281.363281 460.882812 C 280.757812 461.132812 280.183594 461.441406 279.640625 461.804688 C 279.097656 462.167969 278.59375 462.582031 278.132812 463.042969 C 277.667969 463.503906 277.253906 464.007812 276.890625 464.550781 C 276.527344 465.097656 276.222656 465.671875 275.972656 466.277344 C 275.722656 466.878906 275.53125 467.503906 275.402344 468.144531 C 275.277344 468.785156 275.210938 469.433594 275.210938 470.089844 C 275.210938 470.742188 275.277344 471.390625 275.402344 472.03125 C 275.53125 472.675781 275.722656 473.296875 275.972656 473.902344 C 276.222656 474.507812 276.527344 475.082031 276.890625 475.625 C 277.253906 476.167969 277.667969 476.671875 278.132812 477.132812 C 278.59375 477.597656 279.097656 478.011719 279.640625 478.375 C 280.183594 478.738281 280.757812 479.042969 281.363281 479.292969 C 281.96875 479.542969 282.589844 479.734375 283.234375 479.863281 C 283.875 479.988281 284.523438 480.054688 285.175781 480.054688 L 524.320312 480.054688 C 524.972656 480.054688 525.621094 479.988281 526.265625 479.863281 C 526.90625 479.734375 527.527344 479.542969 528.132812 479.292969 C 528.738281 479.042969 529.3125 478.738281 529.855469 478.375 C 530.398438 478.011719 530.902344 477.597656 531.367188 477.132812 C 531.828125 476.671875 532.242188 476.167969 532.605469 475.625 C 532.96875 475.082031 533.277344 474.507812 533.527344 473.902344 C 533.777344 473.296875 533.964844 472.675781 534.09375 472.03125 C 534.21875 471.390625 534.285156 470.742188 534.285156 470.089844 C 534.285156 469.433594 534.21875 468.785156 534.09375 468.144531 C 533.964844 467.503906 533.777344 466.878906 533.527344 466.277344 C 533.277344 465.671875 532.96875 465.097656 532.605469 464.550781 C 532.242188 464.007812 531.828125 463.503906 531.367188 463.042969 C 530.902344 462.582031 530.398438 462.167969 529.855469 461.804688 C 529.3125 461.441406 528.738281 461.132812 528.132812 460.882812 C 527.527344 460.632812 526.90625 460.445312 526.265625 460.316406 C 525.621094 460.1875 524.972656 460.125 524.320312 460.125 Z M 524.320312 460.125 " fill-opacity="1" fill-rule="nonzero"/><path fill="#cad401" d="M 534.285156 509.945312 C 534.285156 509.292969 534.21875 508.644531 534.09375 508 C 533.964844 507.359375 533.777344 506.738281 533.527344 506.132812 C 533.273438 505.527344 532.96875 504.953125 532.605469 504.410156 C 532.242188 503.867188 531.828125 503.363281 531.367188 502.898438 C 530.902344 502.4375 530.398438 502.023438 529.855469 501.660156 C 529.3125 501.296875 528.738281 500.992188 528.132812 500.738281 C 527.527344 500.488281 526.90625 500.300781 526.265625 500.171875 C 525.621094 500.046875 524.972656 499.980469 524.320312 499.980469 L 285.175781 499.980469 C 284.523438 499.980469 283.875 500.046875 283.234375 500.171875 C 282.589844 500.300781 281.96875 500.488281 281.363281 500.738281 C 280.757812 500.992188 280.183594 501.296875 279.640625 501.660156 C 279.097656 502.023438 278.59375 502.4375 278.132812 502.898438 C 277.667969 503.363281 277.253906 503.867188 276.890625 504.410156 C 276.527344 504.953125 276.222656 505.527344 275.972656 506.132812 C 275.722656 506.738281 275.53125 507.359375 275.402344 508 C 275.277344 508.644531 275.210938 509.292969 275.210938 509.945312 C 275.210938 510.601562 275.277344 511.246094 275.402344 511.890625 C 275.53125 512.53125 275.722656 513.15625 275.972656 513.757812 C 276.222656 514.363281 276.527344 514.9375 276.890625 515.480469 C 277.253906 516.027344 277.667969 516.527344 278.132812 516.992188 C 278.59375 517.453125 279.097656 517.867188 279.640625 518.230469 C 280.183594 518.59375 280.757812 518.902344 281.363281 519.152344 C 281.96875 519.402344 282.589844 519.589844 283.234375 519.71875 C 283.875 519.847656 284.523438 519.910156 285.175781 519.910156 L 524.320312 519.910156 C 524.972656 519.910156 525.621094 519.847656 526.265625 519.71875 C 526.90625 519.589844 527.527344 519.402344 528.132812 519.152344 C 528.738281 518.902344 529.3125 518.59375 529.855469 518.230469 C 530.398438 517.867188 530.902344 517.453125 531.367188 516.992188 C 531.828125 516.527344 532.242188 516.027344 532.605469 515.480469 C 532.96875 514.9375 533.273438 514.363281 533.527344 513.757812 C 533.777344 513.15625 533.964844 512.53125 534.09375 511.890625 C 534.21875 511.246094 534.285156 510.601562 534.285156 509.945312 Z M 534.285156 509.945312 " fill-opacity="1" fill-rule="nonzero"/><path fill="#cad401" d="M 275.210938 589.660156 C 275.210938 590.3125 275.277344 590.960938 275.40625 591.605469 C 275.53125 592.246094 275.722656 592.867188 275.972656 593.472656 C 276.222656 594.078125 276.527344 594.652344 276.890625 595.195312 C 277.253906 595.738281 277.667969 596.242188 278.132812 596.707031 C 278.59375 597.167969 279.097656 597.582031 279.640625 597.945312 C 280.183594 598.308594 280.757812 598.617188 281.363281 598.867188 C 281.96875 599.117188 282.589844 599.304688 283.234375 599.433594 C 283.875 599.558594 284.523438 599.625 285.175781 599.625 L 436.46875 599.625 C 437.148438 592.789062 438.664062 586.148438 441.015625 579.695312 L 285.175781 579.695312 C 284.523438 579.695312 283.875 579.757812 283.234375 579.886719 C 282.589844 580.015625 281.96875 580.203125 281.363281 580.453125 C 280.757812 580.703125 280.183594 581.011719 279.640625 581.375 C 279.097656 581.738281 278.59375 582.152344 278.132812 582.613281 C 277.667969 583.078125 277.253906 583.582031 276.890625 584.125 C 276.527344 584.667969 276.222656 585.242188 275.972656 585.847656 C 275.722656 586.453125 275.53125 587.074219 275.40625 587.714844 C 275.277344 588.359375 275.210938 589.003906 275.210938 589.660156 Z M 275.210938 589.660156 " fill-opacity="1" fill-rule="nonzero"/><path fill="#cad401" d="M 225.390625 774 C 224.738281 774 224.089844 773.933594 223.449219 773.804688 C 222.808594 773.679688 222.183594 773.488281 221.578125 773.238281 C 220.976562 772.988281 220.402344 772.679688 219.859375 772.316406 C 219.316406 771.953125 218.8125 771.539062 218.347656 771.078125 C 217.886719 770.613281 217.472656 770.113281 217.109375 769.566406 C 216.746094 769.023438 216.4375 768.449219 216.1875 767.847656 C 215.9375 767.242188 215.75 766.621094 215.621094 765.976562 C 215.492188 765.335938 215.429688 764.6875 215.425781 764.035156 L 215.425781 225.964844 C 215.429688 225.308594 215.492188 224.660156 215.621094 224.019531 C 215.75 223.378906 215.9375 222.757812 216.1875 222.152344 C 216.4375 221.546875 216.746094 220.972656 217.109375 220.429688 C 217.472656 219.886719 217.886719 219.382812 218.347656 218.921875 C 218.8125 218.457031 219.316406 218.046875 219.859375 217.683594 C 220.402344 217.320312 220.976562 217.011719 221.578125 216.761719 C 222.183594 216.511719 222.808594 216.320312 223.449219 216.191406 C 224.089844 216.0625 224.738281 216 225.390625 216 L 584.105469 216 C 584.761719 216 585.40625 216.0625 586.050781 216.191406 C 586.691406 216.320312 587.3125 216.511719 587.917969 216.761719 C 588.519531 217.011719 589.09375 217.320312 589.640625 217.683594 C 590.183594 218.046875 590.6875 218.457031 591.148438 218.921875 C 591.609375 219.382812 592.023438 219.886719 592.386719 220.429688 C 592.75 220.972656 593.058594 221.546875 593.308594 222.152344 C 593.558594 222.757812 593.75 223.378906 593.875 224.019531 C 594.003906 224.660156 594.070312 225.308594 594.070312 225.964844 L 594.070312 572.902344 C 595.339844 575.601562 596.457031 578.363281 597.421875 581.183594 C 598.390625 584.003906 599.199219 586.871094 599.847656 589.777344 C 600.5 592.6875 600.988281 595.625 601.316406 598.589844 C 601.640625 601.554688 601.804688 604.527344 601.804688 607.507812 C 601.804688 610.492188 601.640625 613.464844 601.316406 616.425781 C 600.988281 619.390625 600.5 622.328125 599.847656 625.238281 C 599.199219 628.148438 598.390625 631.015625 597.421875 633.835938 C 596.457031 636.65625 595.339844 639.414062 594.070312 642.113281 L 594.070312 696.777344 L 596.207031 696.777344 C 602.425781 696.78125 608.355469 698.089844 614 700.703125 L 614 225.964844 C 613.996094 224.984375 613.949219 224.007812 613.851562 223.035156 C 613.753906 222.0625 613.609375 221.09375 613.417969 220.132812 C 613.226562 219.175781 612.988281 218.226562 612.703125 217.289062 C 612.417969 216.351562 612.089844 215.433594 611.714844 214.527344 C 611.339844 213.625 610.921875 212.742188 610.460938 211.878906 C 609.996094 211.015625 609.496094 210.175781 608.949219 209.363281 C 608.40625 208.550781 607.824219 207.765625 607.203125 207.007812 C 606.582031 206.253906 605.925781 205.527344 605.234375 204.835938 C 604.542969 204.144531 603.816406 203.488281 603.0625 202.867188 C 602.304688 202.246094 601.519531 201.664062 600.707031 201.117188 C 599.890625 200.574219 599.054688 200.070312 598.191406 199.609375 C 597.328125 199.148438 596.445312 198.730469 595.539062 198.355469 C 594.636719 197.980469 593.714844 197.648438 592.78125 197.363281 C 591.84375 197.082031 590.894531 196.84375 589.933594 196.652344 C 588.976562 196.457031 588.007812 196.3125 587.035156 196.21875 C 586.0625 196.121094 585.085938 196.070312 584.105469 196.070312 L 225.390625 196.070312 C 224.414062 196.070312 223.4375 196.121094 222.460938 196.21875 C 221.488281 196.3125 220.523438 196.457031 219.5625 196.652344 C 218.601562 196.84375 217.652344 197.082031 216.71875 197.363281 C 215.78125 197.648438 214.859375 197.980469 213.957031 198.355469 C 213.054688 198.730469 212.167969 199.148438 211.304688 199.609375 C 210.445312 200.070312 209.605469 200.574219 208.792969 201.117188 C 207.976562 201.664062 207.191406 202.246094 206.4375 202.867188 C 205.679688 203.488281 204.957031 204.144531 204.261719 204.835938 C 203.570312 205.527344 202.914062 206.253906 202.292969 207.007812 C 201.671875 207.765625 201.089844 208.550781 200.546875 209.363281 C 200.003906 210.175781 199.5 211.015625 199.039062 211.878906 C 198.574219 212.742188 198.15625 213.625 197.78125 214.527344 C 197.40625 215.433594 197.078125 216.351562 196.792969 217.289062 C 196.507812 218.226562 196.269531 219.175781 196.078125 220.132812 C 195.886719 221.09375 195.742188 222.0625 195.644531 223.035156 C 195.546875 224.007812 195.5 224.984375 195.5 225.964844 L 195.5 764.035156 C 195.5 765.015625 195.546875 765.988281 195.644531 766.964844 C 195.742188 767.9375 195.886719 768.90625 196.078125 769.863281 C 196.269531 770.824219 196.507812 771.773438 196.792969 772.707031 C 197.078125 773.644531 197.40625 774.566406 197.78125 775.46875 C 198.15625 776.375 198.574219 777.257812 199.039062 778.121094 C 199.5 778.984375 200.003906 779.820312 200.546875 780.636719 C 201.089844 781.449219 201.671875 782.234375 202.292969 782.988281 C 202.914062 783.746094 203.570312 784.472656 204.261719 785.164062 C 204.957031 785.855469 205.679688 786.511719 206.4375 787.132812 C 207.191406 787.753906 207.976562 788.335938 208.792969 788.878906 C 209.605469 789.425781 210.445312 789.925781 211.304688 790.386719 C 212.167969 790.851562 213.054688 791.269531 213.957031 791.644531 C 214.859375 792.019531 215.78125 792.347656 216.71875 792.632812 C 217.652344 792.917969 218.601562 793.15625 219.5625 793.347656 C 220.523438 793.539062 221.488281 793.683594 222.460938 793.78125 C 223.4375 793.878906 224.414062 793.925781 225.390625 793.929688 L 406.394531 793.929688 C 404.496094 790.929688 402.996094 787.746094 401.898438 784.371094 C 400.800781 780.996094 400.136719 777.539062 399.90625 774 Z M 225.390625 774 " fill-opacity="1" fill-rule="nonzero"/><path fill="#cad401" d="M 596.207031 716.703125 L 564.53125 716.703125 L 564.53125 714.304688 C 564.53125 702.554688 558.367188 693.429688 549.808594 691.828125 C 552.058594 677.90625 556.515625 664.734375 563.183594 652.308594 L 563.378906 651.917969 C 566.320312 649.023438 568.945312 645.867188 571.253906 642.445312 C 573.566406 639.027344 575.515625 635.414062 577.101562 631.605469 C 578.691406 627.796875 579.886719 623.867188 580.691406 619.820312 C 581.496094 615.773438 581.890625 611.6875 581.878906 607.558594 C 581.882812 606.261719 581.847656 604.960938 581.769531 603.664062 C 581.695312 602.367188 581.578125 601.070312 581.421875 599.78125 C 581.265625 598.492188 581.070312 597.207031 580.835938 595.929688 C 580.597656 594.648438 580.324219 593.378906 580.007812 592.117188 C 579.695312 590.855469 579.34375 589.605469 578.949219 588.367188 C 578.558594 587.128906 578.128906 585.902344 577.660156 584.6875 C 577.191406 583.476562 576.6875 582.277344 576.144531 581.097656 C 575.605469 579.914062 575.027344 578.753906 574.414062 577.605469 C 573.796875 576.460938 573.148438 575.335938 572.464844 574.230469 C 571.78125 573.125 571.0625 572.039062 570.3125 570.980469 C 569.5625 569.917969 568.78125 568.882812 567.964844 567.871094 C 567.148438 566.855469 566.304688 565.871094 565.425781 564.910156 C 564.550781 563.949219 563.644531 563.019531 562.710938 562.113281 C 561.777344 561.210938 560.816406 560.335938 559.828125 559.492188 C 558.839844 558.644531 557.828125 557.832031 556.789062 557.050781 C 555.75 556.269531 554.6875 555.519531 553.601562 554.804688 C 552.519531 554.089844 551.410156 553.40625 550.285156 552.761719 C 549.15625 552.113281 548.011719 551.5 546.847656 550.925781 C 545.679688 550.347656 544.5 549.808594 543.300781 549.304688 C 542.101562 548.800781 540.890625 548.335938 539.660156 547.90625 C 538.433594 547.480469 537.195312 547.089844 535.941406 546.738281 C 534.691406 546.386719 533.429688 546.074219 532.160156 545.800781 C 530.886719 545.53125 529.609375 545.296875 528.324219 545.101562 C 527.039062 544.910156 525.75 544.753906 524.453125 544.640625 C 523.160156 544.527344 521.863281 544.453125 520.5625 544.417969 C 519.261719 544.386719 517.964844 544.390625 516.664062 544.4375 C 515.367188 544.484375 514.070312 544.574219 512.777344 544.699219 C 511.480469 544.828125 510.195312 544.996094 508.910156 545.203125 C 507.628906 545.410156 506.351562 545.65625 505.082031 545.941406 C 503.816406 546.226562 502.558594 546.554688 501.308594 546.917969 C 500.0625 547.28125 498.828125 547.683594 497.601562 548.125 C 496.378906 548.5625 495.171875 549.042969 493.980469 549.558594 C 492.785156 550.074219 491.609375 550.625 490.449219 551.214844 C 489.289062 551.800781 488.152344 552.425781 487.03125 553.085938 C 485.910156 553.742188 484.8125 554.4375 483.734375 555.164062 C 482.65625 555.890625 481.601562 556.648438 480.570312 557.441406 C 479.539062 558.234375 478.535156 559.058594 477.554688 559.914062 C 476.578125 560.765625 475.625 561.652344 474.699219 562.566406 C 473.773438 563.480469 472.878906 564.421875 472.011719 565.390625 C 471.148438 566.359375 470.3125 567.351562 469.507812 568.375 C 468.703125 569.394531 467.929688 570.441406 467.191406 571.507812 C 466.449219 572.578125 465.742188 573.667969 465.070312 574.78125 C 464.398438 575.894531 463.761719 577.023438 463.160156 578.175781 C 462.554688 579.328125 461.992188 580.5 461.460938 581.683594 C 460.929688 582.871094 460.4375 584.074219 459.984375 585.292969 C 459.527344 586.511719 459.109375 587.742188 458.730469 588.984375 C 458.351562 590.226562 458.011719 591.480469 457.710938 592.746094 C 457.410156 594.011719 457.148438 595.28125 456.925781 596.5625 C 456.703125 597.84375 456.519531 599.128906 456.375 600.421875 C 456.234375 601.714844 456.128906 603.007812 456.066406 604.308594 C 456.003906 605.605469 455.984375 606.90625 456 608.207031 C 456.019531 609.503906 456.078125 610.804688 456.175781 612.097656 C 456.273438 613.394531 456.410156 614.6875 456.589844 615.976562 C 456.769531 617.261719 456.988281 618.542969 457.246094 619.816406 C 457.503906 621.089844 457.800781 622.355469 458.136719 623.613281 C 458.472656 624.867188 458.847656 626.113281 459.257812 627.34375 C 459.671875 628.578125 460.125 629.796875 460.613281 631 C 461.101562 632.203125 461.625 633.394531 462.1875 634.566406 C 462.75 635.738281 463.347656 636.890625 463.980469 638.027344 C 464.617188 639.160156 465.285156 640.273438 465.988281 641.367188 C 466.691406 642.460938 467.425781 643.53125 468.195312 644.582031 C 468.964844 645.628906 469.765625 646.652344 470.597656 647.648438 C 471.429688 648.648438 472.292969 649.621094 473.183594 650.566406 C 474.078125 651.507812 475 652.425781 475.949219 653.3125 L 476.085938 653.597656 C 482.386719 665.65625 486.644531 678.402344 488.855469 691.828125 C 480.304688 693.433594 474.144531 702.558594 474.144531 714.304688 L 474.144531 716.703125 L 442.46875 716.703125 C 441.726562 716.703125 440.980469 716.742188 440.242188 716.8125 C 439.5 716.886719 438.761719 716.996094 438.03125 717.140625 C 437.300781 717.285156 436.582031 717.46875 435.867188 717.683594 C 435.15625 717.898438 434.453125 718.148438 433.765625 718.433594 C 433.078125 718.71875 432.40625 719.035156 431.746094 719.386719 C 431.089844 719.738281 430.453125 720.121094 429.832031 720.535156 C 429.210938 720.945312 428.613281 721.390625 428.039062 721.863281 C 427.460938 722.332031 426.910156 722.832031 426.382812 723.359375 C 425.855469 723.886719 425.355469 724.4375 424.882812 725.011719 C 424.410156 725.585938 423.964844 726.183594 423.550781 726.800781 C 423.136719 727.421875 422.753906 728.058594 422.402344 728.714844 C 422.046875 729.371094 421.730469 730.042969 421.441406 730.730469 C 421.15625 731.417969 420.90625 732.117188 420.6875 732.832031 C 420.46875 733.542969 420.289062 734.265625 420.140625 734.996094 C 419.996094 735.726562 419.882812 736.460938 419.808594 737.203125 C 419.734375 737.941406 419.695312 738.6875 419.695312 739.429688 L 419.695312 771.203125 C 419.695312 771.945312 419.734375 772.691406 419.808594 773.429688 C 419.882812 774.171875 419.996094 774.90625 420.140625 775.636719 C 420.289062 776.367188 420.46875 777.089844 420.6875 777.800781 C 420.90625 778.515625 421.15625 779.214844 421.441406 779.902344 C 421.730469 780.589844 422.046875 781.261719 422.402344 781.917969 C 422.753906 782.574219 423.136719 783.210938 423.550781 783.832031 C 423.964844 784.449219 424.410156 785.046875 424.882812 785.621094 C 425.355469 786.195312 425.855469 786.746094 426.382812 787.273438 C 426.910156 787.800781 427.460938 788.300781 428.039062 788.769531 C 428.613281 789.242188 429.210938 789.6875 429.832031 790.097656 C 430.453125 790.511719 431.089844 790.894531 431.746094 791.246094 C 432.40625 791.597656 433.078125 791.914062 433.765625 792.199219 C 434.453125 792.484375 435.15625 792.734375 435.867188 792.949219 C 436.582031 793.164062 437.300781 793.347656 438.03125 793.492188 C 438.761719 793.636719 439.5 793.746094 440.242188 793.820312 C 440.980469 793.890625 441.726562 793.929688 442.46875 793.929688 L 596.207031 793.929688 C 596.949219 793.929688 597.695312 793.890625 598.433594 793.820312 C 599.175781 793.746094 599.914062 793.636719 600.644531 793.492188 C 601.375 793.347656 602.09375 793.164062 602.808594 792.949219 C 603.519531 792.734375 604.222656 792.484375 604.910156 792.199219 C 605.597656 791.914062 606.269531 791.597656 606.929688 791.246094 C 607.585938 790.894531 608.222656 790.511719 608.84375 790.097656 C 609.464844 789.6875 610.0625 789.242188 610.636719 788.769531 C 611.214844 788.300781 611.765625 787.800781 612.292969 787.273438 C 612.820312 786.746094 613.320312 786.195312 613.792969 785.621094 C 614.265625 785.046875 614.710938 784.449219 615.125 783.832031 C 615.539062 783.210938 615.921875 782.574219 616.273438 781.917969 C 616.628906 781.261719 616.945312 780.589844 617.234375 779.902344 C 617.519531 779.214844 617.769531 778.515625 617.988281 777.800781 C 618.207031 777.089844 618.386719 776.367188 618.535156 775.636719 C 618.679688 774.90625 618.792969 774.171875 618.867188 773.429688 C 618.941406 772.691406 618.980469 771.945312 618.980469 771.203125 L 618.980469 739.429688 C 618.980469 738.6875 618.941406 737.941406 618.867188 737.203125 C 618.792969 736.460938 618.679688 735.726562 618.535156 734.996094 C 618.386719 734.265625 618.207031 733.542969 617.988281 732.832031 C 617.769531 732.117188 617.519531 731.417969 617.234375 730.730469 C 616.945312 730.042969 616.628906 729.371094 616.273438 728.714844 C 615.921875 728.058594 615.539062 727.421875 615.125 726.800781 C 614.710938 726.183594 614.265625 725.585938 613.792969 725.011719 C 613.320312 724.433594 612.820312 723.886719 612.292969 723.359375 C 611.765625 722.832031 611.214844 722.332031 610.636719 721.863281 C 610.0625 721.390625 609.460938 720.945312 608.84375 720.535156 C 608.222656 720.121094 607.585938 719.738281 606.929688 719.386719 C 606.269531 719.035156 605.597656 718.71875 604.910156 718.433594 C 604.222656 718.148438 603.519531 717.898438 602.808594 717.683594 C 602.09375 717.46875 601.375 717.285156 600.644531 717.140625 C 599.914062 716.996094 599.175781 716.886719 598.433594 716.8125 C 597.695312 716.742188 596.949219 716.703125 596.207031 716.703125 Z M 599.050781 771.203125 C 599.046875 771.574219 598.972656 771.933594 598.828125 772.28125 C 598.679688 772.625 598.476562 772.925781 598.207031 773.191406 C 597.941406 773.453125 597.632812 773.652344 597.289062 773.792969 C 596.941406 773.933594 596.578125 774.003906 596.207031 774 L 442.46875 774 C 442.09375 774.003906 441.734375 773.933594 441.386719 773.792969 C 441.042969 773.652344 440.734375 773.453125 440.46875 773.191406 C 440.199219 772.925781 439.996094 772.625 439.847656 772.28125 C 439.703125 771.933594 439.628906 771.574219 439.625 771.203125 L 439.625 739.429688 C 439.628906 739.054688 439.703125 738.699219 439.847656 738.351562 C 439.996094 738.007812 440.199219 737.707031 440.46875 737.441406 C 440.734375 737.179688 441.042969 736.980469 441.386719 736.839844 C 441.734375 736.699219 442.09375 736.628906 442.46875 736.632812 L 484.109375 736.632812 C 484.761719 736.632812 485.410156 736.570312 486.050781 736.441406 C 486.691406 736.3125 487.316406 736.125 487.921875 735.875 C 488.523438 735.625 489.097656 735.316406 489.644531 734.953125 C 490.1875 734.589844 490.691406 734.175781 491.152344 733.714844 C 491.617188 733.25 492.027344 732.75 492.394531 732.203125 C 492.757812 731.660156 493.0625 731.085938 493.3125 730.480469 C 493.5625 729.878906 493.753906 729.253906 493.878906 728.613281 C 494.007812 727.972656 494.070312 727.324219 494.070312 726.667969 L 494.070312 714.304688 C 494.0625 713.355469 494.183594 712.421875 494.425781 711.507812 L 500.121094 711.507812 C 500.8125 711.507812 501.5 711.433594 502.175781 711.292969 C 502.855469 711.148438 503.511719 710.9375 504.144531 710.65625 C 504.78125 710.378906 505.378906 710.035156 505.941406 709.628906 C 506.503906 709.226562 507.019531 708.765625 507.484375 708.253906 C 507.953125 707.742188 508.363281 707.1875 508.710938 706.589844 C 509.0625 705.992188 509.347656 705.363281 509.570312 704.707031 C 509.789062 704.046875 509.9375 703.375 510.019531 702.6875 C 510.097656 701.996094 510.105469 701.308594 510.039062 700.617188 C 509.269531 690.90625 507.539062 681.371094 504.847656 672.011719 C 502.160156 662.648438 498.566406 653.648438 494.066406 645.007812 L 493.09375 642.96875 C 492.5 641.71875 491.683594 640.640625 490.640625 639.734375 C 489.976562 639.144531 489.328125 638.535156 488.699219 637.902344 C 488.070312 637.273438 487.460938 636.621094 486.875 635.953125 C 486.285156 635.285156 485.71875 634.597656 485.171875 633.894531 C 484.628906 633.191406 484.105469 632.472656 483.605469 631.734375 C 483.101562 631 482.625 630.246094 482.171875 629.480469 C 481.71875 628.714844 481.289062 627.933594 480.882812 627.140625 C 480.480469 626.347656 480.097656 625.542969 479.742188 624.726562 C 479.386719 623.910156 479.058594 623.082031 478.753906 622.246094 C 478.453125 621.410156 478.175781 620.5625 477.921875 619.707031 C 477.671875 618.855469 477.449219 617.992188 477.25 617.125 C 477.054688 616.257812 476.882812 615.382812 476.742188 614.503906 C 476.597656 613.625 476.484375 612.742188 476.394531 611.855469 C 476.308594 610.96875 476.25 610.082031 476.214844 609.191406 C 476.183594 608.300781 476.179688 607.410156 476.203125 606.519531 C 476.226562 605.632812 476.277344 604.742188 476.355469 603.855469 C 476.433594 602.96875 476.539062 602.085938 476.671875 601.203125 C 476.804688 600.324219 476.964844 599.449219 477.152344 598.578125 C 477.339844 597.707031 477.558594 596.84375 477.796875 595.988281 C 478.039062 595.128906 478.308594 594.28125 478.601562 593.441406 C 478.898438 592.601562 479.21875 591.769531 479.566406 590.949219 C 479.910156 590.128906 480.28125 589.320312 480.679688 588.523438 C 481.078125 587.726562 481.496094 586.941406 481.941406 586.171875 C 482.390625 585.398438 482.859375 584.644531 483.351562 583.902344 C 483.84375 583.160156 484.359375 582.433594 484.898438 581.722656 C 485.433594 581.015625 485.996094 580.324219 486.574219 579.648438 C 487.15625 578.972656 487.757812 578.316406 488.378906 577.679688 C 489.003906 577.042969 489.644531 576.425781 490.304688 575.828125 C 490.964844 575.230469 491.644531 574.652344 492.339844 574.097656 C 493.035156 573.542969 493.75 573.011719 494.476562 572.5 C 495.207031 571.988281 495.953125 571.503906 496.710938 571.039062 C 497.472656 570.574219 498.246094 570.132812 499.035156 569.71875 C 499.820312 569.300781 500.621094 568.910156 501.433594 568.542969 C 502.242188 568.175781 503.066406 567.835938 503.898438 567.523438 C 504.730469 567.207031 505.574219 566.917969 506.425781 566.65625 C 507.277344 566.394531 508.132812 566.15625 509 565.949219 C 509.867188 565.738281 510.738281 565.558594 511.613281 565.402344 C 512.492188 565.246094 513.371094 565.121094 514.257812 565.019531 C 515.140625 564.921875 516.027344 564.847656 516.917969 564.804688 C 517.808594 564.757812 518.695312 564.742188 519.585938 564.753906 C 520.476562 564.761719 521.367188 564.800781 522.253906 564.867188 C 523.144531 564.933594 524.027344 565.027344 524.910156 565.148438 C 525.792969 565.269531 526.671875 565.417969 527.542969 565.59375 C 528.417969 565.769531 529.28125 565.972656 530.144531 566.203125 C 531.003906 566.433594 531.855469 566.691406 532.699219 566.972656 C 533.542969 567.257812 534.378906 567.566406 535.203125 567.902344 C 536.03125 568.234375 536.84375 568.597656 537.644531 568.980469 C 538.449219 569.367188 539.238281 569.777344 540.015625 570.214844 C 540.792969 570.648438 541.554688 571.105469 542.304688 571.589844 C 543.050781 572.074219 543.785156 572.578125 544.5 573.105469 C 545.21875 573.632812 545.917969 574.183594 546.601562 574.757812 C 547.285156 575.328125 547.949219 575.921875 548.59375 576.535156 C 549.238281 577.148438 549.867188 577.777344 550.472656 578.429688 C 551.078125 579.082031 551.664062 579.753906 552.230469 580.441406 C 552.792969 581.132812 553.335938 581.835938 553.855469 582.558594 C 554.378906 583.28125 554.875 584.019531 555.347656 584.773438 C 555.824219 585.527344 556.273438 586.292969 556.703125 587.074219 C 557.128906 587.855469 557.53125 588.652344 557.90625 589.457031 C 558.285156 590.265625 558.636719 591.082031 558.964844 591.910156 C 559.289062 592.738281 559.589844 593.578125 559.863281 594.425781 C 560.140625 595.273438 560.386719 596.125 560.609375 596.988281 C 560.828125 597.851562 561.023438 598.71875 561.191406 599.59375 C 561.355469 600.46875 561.496094 601.347656 561.609375 602.234375 C 561.71875 603.117188 561.804688 604.003906 561.863281 604.890625 C 561.917969 605.78125 561.949219 606.667969 561.949219 607.558594 C 561.957031 610.484375 561.660156 613.375 561.070312 616.238281 C 560.476562 619.101562 559.59375 621.871094 558.425781 624.550781 C 557.257812 627.230469 555.828125 629.761719 554.136719 632.144531 C 552.445312 634.527344 550.523438 636.710938 548.378906 638.699219 C 547.488281 639.535156 546.773438 640.503906 546.238281 641.601562 L 545.289062 643.542969 C 540.59375 652.386719 536.84375 661.617188 534.039062 671.226562 C 531.234375 680.839844 529.433594 690.636719 528.636719 700.621094 C 528.570312 701.308594 528.578125 702 528.660156 702.6875 C 528.738281 703.375 528.886719 704.050781 529.109375 704.707031 C 529.328125 705.363281 529.613281 705.992188 529.964844 706.589844 C 530.316406 707.1875 530.722656 707.742188 531.191406 708.253906 C 531.65625 708.765625 532.171875 709.226562 532.734375 709.628906 C 533.296875 710.035156 533.894531 710.378906 534.53125 710.65625 C 535.164062 710.9375 535.820312 711.148438 536.5 711.292969 C 537.175781 711.433594 537.863281 711.507812 538.554688 711.507812 L 544.25 711.507812 C 544.492188 712.421875 544.613281 713.355469 544.605469 714.304688 L 544.605469 726.667969 C 544.605469 727.324219 544.667969 727.972656 544.796875 728.613281 C 544.921875 729.253906 545.113281 729.878906 545.363281 730.480469 C 545.613281 731.085938 545.917969 731.660156 546.285156 732.203125 C 546.648438 732.75 547.058594 733.253906 547.523438 733.714844 C 547.984375 734.175781 548.488281 734.589844 549.03125 734.953125 C 549.578125 735.316406 550.152344 735.625 550.753906 735.875 C 551.359375 736.125 551.984375 736.3125 552.625 736.441406 C 553.265625 736.570312 553.914062 736.632812 554.566406 736.632812 L 596.207031 736.632812 C 596.578125 736.628906 596.941406 736.699219 597.289062 736.839844 C 597.632812 736.980469 597.941406 737.179688 598.207031 737.441406 C 598.476562 737.707031 598.679688 738.007812 598.828125 738.351562 C 598.972656 738.699219 599.046875 739.058594 599.050781 739.429688 Z M 599.050781 771.203125 " fill-opacity="1" fill-rule="nonzero"/><path fill="#cad401" d="M 405.070312 637.9375 C 403.878906 637.089844 402.605469 636.398438 401.25 635.851562 C 399.890625 635.308594 398.492188 634.929688 397.046875 634.71875 C 395.601562 634.503906 394.148438 634.464844 392.695312 634.59375 C 391.238281 634.726562 389.820312 635.023438 388.433594 635.492188 C 377.851562 639.304688 373.613281 652.160156 369.128906 665.773438 C 367.09375 673.246094 364.109375 680.316406 360.175781 686.988281 C 359.789062 685.777344 359.417969 684.492188 359.105469 683.429688 C 356.507812 674.480469 351.652344 657.847656 334.605469 659.652344 C 320.890625 661.128906 314.980469 673.363281 309.765625 684.160156 C 304.15625 695.78125 300.171875 702.925781 292.144531 704.140625 C 291.667969 704.222656 291.1875 704.257812 290.703125 704.246094 C 288.875 700.203125 291.394531 685.269531 296.050781 673.132812 C 296.285156 672.523438 296.457031 671.894531 296.570312 671.25 C 296.679688 670.605469 296.726562 669.957031 296.710938 669.304688 C 296.691406 668.648438 296.613281 668.003906 296.46875 667.367188 C 296.324219 666.726562 296.117188 666.109375 295.851562 665.511719 C 295.585938 664.914062 295.265625 664.347656 294.890625 663.816406 C 294.511719 663.28125 294.085938 662.789062 293.613281 662.335938 C 293.136719 661.886719 292.625 661.488281 292.070312 661.136719 C 291.519531 660.789062 290.9375 660.496094 290.328125 660.261719 C 289.71875 660.027344 289.089844 659.851562 288.445312 659.742188 C 287.800781 659.628906 287.152344 659.582031 286.496094 659.597656 C 285.84375 659.617188 285.199219 659.695312 284.558594 659.839844 C 283.921875 659.984375 283.304688 660.1875 282.707031 660.453125 C 282.109375 660.71875 281.542969 661.039062 281.007812 661.414062 C 280.472656 661.792969 279.980469 662.21875 279.53125 662.691406 C 279.078125 663.164062 278.679688 663.675781 278.328125 664.230469 C 277.980469 664.78125 277.6875 665.363281 277.449219 665.972656 C 274.167969 674.492188 264.320312 703.351562 275.378906 717.117188 C 276.316406 718.265625 277.371094 719.289062 278.542969 720.191406 C 279.714844 721.09375 280.976562 721.851562 282.324219 722.464844 C 283.671875 723.078125 285.070312 723.527344 286.523438 723.816406 C 287.972656 724.105469 289.4375 724.226562 290.917969 724.175781 C 292.332031 724.171875 293.734375 724.0625 295.132812 723.847656 C 314.125 720.96875 321.980469 704.703125 327.714844 692.824219 C 330.386719 687.285156 333.683594 680.460938 336.472656 679.546875 C 338.007812 682.5625 339.171875 685.710938 339.96875 688.996094 C 342.179688 696.589844 344.679688 705.195312 352.824219 708.328125 C 354.125 708.78125 355.460938 709.074219 356.828125 709.207031 C 358.199219 709.335938 359.566406 709.304688 360.925781 709.105469 C 362.289062 708.90625 363.609375 708.550781 364.882812 708.035156 C 366.160156 707.515625 367.355469 706.855469 368.472656 706.050781 C 378.976562 699.574219 383.59375 685.5625 388.058594 672.007812 C 389.746094 666.121094 392 660.457031 394.8125 655.019531 C 395.375 655.339844 395.960938 655.605469 396.570312 655.8125 C 397.183594 656.019531 397.808594 656.167969 398.449219 656.253906 C 399.089844 656.339844 399.730469 656.363281 400.378906 656.324219 C 401.023438 656.285156 401.65625 656.183594 402.28125 656.019531 C 402.90625 655.859375 403.511719 655.636719 404.09375 655.355469 C 404.675781 655.078125 405.226562 654.742188 405.742188 654.355469 C 406.261719 653.96875 406.734375 653.535156 407.167969 653.058594 C 407.601562 652.578125 407.984375 652.0625 408.316406 651.507812 C 408.648438 650.953125 408.925781 650.371094 409.144531 649.765625 C 409.363281 649.15625 409.523438 648.535156 409.621094 647.894531 C 409.71875 647.257812 409.757812 646.613281 409.730469 645.96875 C 409.703125 645.324219 409.613281 644.6875 409.464844 644.058594 C 409.3125 643.429688 409.105469 642.824219 408.835938 642.234375 C 408.566406 641.648438 408.246094 641.089844 407.867188 640.566406 C 407.492188 640.042969 407.066406 639.558594 406.597656 639.117188 C 406.125 638.671875 405.617188 638.28125 405.070312 637.9375 Z M 405.070312 637.9375 " fill-opacity="1" fill-rule="nonzero"/><path fill="#cad401" d="M 275.210938 549.804688 C 275.210938 550.457031 275.277344 551.105469 275.40625 551.746094 C 275.53125 552.386719 275.722656 553.011719 275.972656 553.617188 C 276.222656 554.21875 276.527344 554.792969 276.890625 555.339844 C 277.253906 555.882812 277.667969 556.386719 278.132812 556.847656 C 278.59375 557.3125 279.097656 557.722656 279.640625 558.085938 C 280.183594 558.453125 280.757812 558.757812 281.363281 559.007812 C 281.96875 559.257812 282.589844 559.449219 283.234375 559.574219 C 283.875 559.703125 284.523438 559.765625 285.175781 559.765625 L 451.441406 559.765625 C 457 551.96875 463.703125 545.328125 471.550781 539.839844 L 285.175781 539.839844 C 284.523438 539.839844 283.875 539.902344 283.234375 540.03125 C 282.589844 540.15625 281.96875 540.347656 281.363281 540.597656 C 280.757812 540.847656 280.183594 541.15625 279.640625 541.519531 C 279.097656 541.882812 278.59375 542.292969 278.132812 542.757812 C 277.667969 543.21875 277.253906 543.722656 276.890625 544.265625 C 276.527344 544.8125 276.222656 545.386719 275.972656 545.988281 C 275.722656 546.59375 275.53125 547.21875 275.40625 547.859375 C 275.277344 548.5 275.210938 549.148438 275.210938 549.804688 Z M 275.210938 549.804688 " fill-opacity="1" fill-rule="nonzero"/></svg>