<svg xmlns="http://www.w3.org/2000/svg" xmlns:xlink="http://www.w3.org/1999/xlink" width="1080" zoomAndPan="magnify" viewBox="0 0 810 989.999987" height="1320" preserveAspectRatio="xMidYMid meet" version="1.0"><defs><clipPath id="cf05f6dfbd"><path d="M 517 404 L 755 404 L 755 714.636719 L 517 714.636719 Z M 517 404 " clip-rule="nonzero"/></clipPath><clipPath id="9fd76dfe56"><path d="M 276 202.386719 L 536 202.386719 L 536 272 L 276 272 Z M 276 202.386719 " clip-rule="nonzero"/></clipPath></defs><path fill="#cad401" d="M 562.746094 641.328125 C 562.746094 591.359375 489.261719 548.25 405.980469 548.25 C 321.71875 548.25 248.234375 591.359375 248.234375 641.328125 C 248.234375 680.519531 298.203125 699.136719 405.980469 699.136719 C 512.777344 699.136719 562.746094 680.519531 562.746094 641.328125 Z M 562.746094 641.328125 " fill-opacity="1" fill-rule="nonzero"/><path fill="#cad401" d="M 405.980469 528.65625 C 448.109375 528.65625 483.382812 493.382812 483.382812 450.273438 C 483.382812 408.140625 448.109375 372.871094 405.980469 372.871094 C 362.867188 372.871094 327.597656 407.160156 327.597656 450.273438 C 327.597656 493.382812 362.867188 528.65625 405.980469 528.65625 Z M 405.980469 528.65625 " fill-opacity="1" fill-rule="nonzero"/><path fill="#cad401" d="M 205.125 694.238281 C 114.984375 694.238281 73.832031 679.542969 73.832031 647.207031 C 73.832031 610.957031 129.679688 569.804688 205.125 569.804688 C 226.679688 569.804688 245.296875 573.726562 259.992188 577.644531 C 265.871094 572.746094 271.75 567.847656 278.609375 562.945312 C 269.789062 560.007812 260.972656 557.070312 252.152344 555.109375 C 274.6875 540.414062 289.386719 513.957031 289.386719 485.542969 C 289.386719 439.496094 252.152344 403.242188 205.125 403.242188 C 158.09375 403.242188 120.863281 440.472656 120.863281 485.542969 C 120.863281 513.957031 135.558594 539.433594 158.09375 555.109375 C 98.328125 568.824219 54.238281 605.078125 54.238281 647.207031 C 54.238281 705.996094 134.578125 713.832031 205.125 713.832031 C 234.515625 713.832031 264.890625 712.855469 290.363281 706.976562 C 277.628906 703.054688 265.871094 698.15625 256.074219 692.277344 C 239.417969 694.238281 222.761719 694.238281 205.125 694.238281 Z M 141.4375 486.523438 C 141.4375 451.253906 169.851562 423.816406 206.105469 423.816406 C 241.375 423.816406 270.769531 452.230469 270.769531 486.523438 C 270.769531 521.796875 241.375 551.191406 206.105469 551.191406 C 170.832031 551.191406 141.4375 521.796875 141.4375 486.523438 Z M 141.4375 486.523438 " fill-opacity="1" fill-rule="nonzero"/><g clip-path="url(#cf05f6dfbd)"><path fill="#cad401" d="M 652.882812 556.089844 C 675.417969 541.390625 690.117188 515.917969 690.117188 486.523438 C 690.117188 440.472656 652.882812 404.222656 605.855469 404.222656 C 558.824219 404.222656 521.59375 441.453125 521.59375 486.523438 C 521.59375 515.917969 536.289062 541.390625 558.824219 556.089844 C 550.007812 558.046875 540.210938 560.988281 531.390625 563.925781 C 538.25 568.824219 544.128906 573.726562 550.007812 578.625 C 568.625 573.726562 587.238281 570.785156 604.875 570.785156 C 681.296875 570.785156 735.1875 610.957031 735.1875 648.1875 C 735.1875 680.519531 694.035156 695.21875 604.875 695.21875 C 588.21875 695.21875 569.601562 695.21875 551.96875 693.257812 C 542.167969 699.136719 530.410156 704.035156 517.675781 707.953125 C 544.128906 713.832031 576.460938 714.8125 604.875 714.8125 C 674.441406 714.8125 754.78125 706.976562 754.78125 648.1875 C 755.761719 606.058594 711.671875 568.824219 652.882812 556.089844 Z M 541.1875 486.523438 C 541.1875 451.253906 569.601562 423.816406 605.855469 423.816406 C 641.125 423.816406 670.519531 452.230469 670.519531 486.523438 C 670.519531 521.796875 641.125 551.191406 605.855469 551.191406 C 570.582031 551.191406 541.1875 521.796875 541.1875 486.523438 Z M 541.1875 486.523438 " fill-opacity="1" fill-rule="nonzero"/></g><g clip-path="url(#9fd76dfe56)"><path fill="#cad401" d="M 293.304688 269.011719 C 322.699219 238.640625 361.890625 221.984375 405.980469 221.984375 C 448.109375 221.984375 488.28125 238.640625 518.652344 269.011719 C 520.613281 270.972656 523.554688 271.953125 525.511719 271.953125 C 527.472656 271.953125 530.410156 270.972656 532.371094 269.011719 C 536.289062 265.09375 536.289062 259.214844 532.371094 255.296875 C 498.078125 221.003906 453.988281 202.386719 405.980469 202.386719 C 356.988281 202.386719 312.898438 221.003906 279.585938 255.296875 C 275.667969 259.214844 275.667969 265.09375 279.585938 269.011719 C 283.507812 272.933594 289.386719 272.933594 293.304688 269.011719 Z M 293.304688 269.011719 " fill-opacity="1" fill-rule="nonzero"/></g><path fill="#cad401" d="M 346.210938 321.921875 C 362.867188 306.246094 383.445312 298.40625 405.980469 298.40625 C 427.535156 298.40625 449.089844 307.222656 463.785156 321.921875 C 467.707031 325.839844 473.585938 325.839844 477.503906 321.921875 C 481.421875 318 481.421875 312.125 477.503906 308.203125 C 458.886719 289.589844 432.433594 278.808594 405.980469 278.808594 C 379.523438 278.808594 353.070312 289.589844 333.476562 308.203125 C 329.554688 312.125 329.554688 318 333.476562 321.921875 C 335.433594 323.878906 338.375 324.859375 340.332031 324.859375 C 342.292969 324.859375 344.253906 323.878906 346.210938 321.921875 Z M 346.210938 321.921875 " fill-opacity="1" fill-rule="nonzero"/></svg>