<svg xmlns="http://www.w3.org/2000/svg" xmlns:xlink="http://www.w3.org/1999/xlink" width="1080" zoomAndPan="magnify" viewBox="0 0 810 989.999987" height="1320" preserveAspectRatio="xMidYMid meet" version="1.0"><defs><clipPath id="0faffd1f80"><path d="M 20 118.03125 L 790 118.03125 L 790 871.78125 L 20 871.78125 Z M 20 118.03125 " clip-rule="nonzero"/></clipPath></defs><g clip-path="url(#0faffd1f80)"><path fill="#cad401" d="M 54.417969 486.753906 L 38.761719 499.960938 C 34.148438 503.851562 27.246094 503.265625 23.355469 498.652344 C 19.46875 494.042969 20.050781 487.140625 24.664062 483.25 L 61.3125 452.332031 C 65.925781 448.441406 72.820312 449.023438 76.714844 453.640625 L 107.632812 490.285156 C 111.523438 494.898438 110.9375 501.800781 106.324219 505.691406 C 101.714844 509.578125 94.8125 508.996094 90.921875 504.382812 L 76.339844 487.101562 C 75.324219 497.667969 74.800781 508.375 74.800781 519.207031 C 74.800781 701.84375 223.078125 850.121094 405.71875 850.121094 C 430.492188 850.121094 454.632812 847.394531 477.859375 842.222656 C 483.75 840.914062 489.59375 844.628906 490.90625 850.515625 C 492.21875 856.40625 488.5 862.25 482.613281 863.5625 C 457.855469 869.074219 432.125 871.984375 405.71875 871.984375 C 211.015625 871.984375 52.941406 713.910156 52.941406 519.207031 C 52.941406 508.265625 53.441406 497.441406 54.417969 486.753906 Z M 734.269531 479.484375 C 714.625 315.542969 574.910156 188.292969 405.71875 188.292969 C 372.300781 188.292969 340.03125 193.253906 309.613281 202.484375 C 303.84375 204.234375 297.734375 200.972656 295.980469 195.199219 C 294.230469 189.425781 297.492188 183.316406 303.265625 181.5625 C 335.695312 171.726562 370.09375 166.429688 405.71875 166.429688 C 586.242188 166.429688 735.273438 302.324219 756.027344 477.304688 L 769.503906 460.023438 C 773.214844 455.265625 780.085938 454.414062 784.847656 458.125 C 789.601562 461.835938 790.453125 468.707031 786.742188 473.464844 L 757.257812 511.273438 C 753.542969 516.035156 746.675781 516.886719 741.914062 513.171875 L 704.105469 483.6875 C 699.347656 479.976562 698.5 473.101562 702.207031 468.34375 C 705.917969 463.585938 712.792969 462.734375 717.550781 466.445312 Z M 245.230469 187.972656 L 254.136719 187.972656 C 258.445312 187.972656 261.945312 191.46875 261.945312 195.78125 C 261.945312 200.085938 258.445312 203.585938 254.136719 203.585938 L 121.125 203.585938 C 116.8125 203.585938 113.316406 200.085938 113.316406 195.78125 C 113.316406 191.46875 116.8125 187.972656 121.125 187.972656 L 130.03125 187.972656 C 130.03125 187.761719 130.027344 187.550781 130.027344 187.335938 C 130.027344 162.742188 145.476562 141.722656 167.195312 133.472656 L 169.269531 151.667969 C 169.660156 155.09375 172.757812 157.558594 176.183594 157.167969 C 179.609375 156.777344 182.070312 153.679688 181.683594 150.253906 L 178.765625 132.476562 C 178.757812 132.417969 178.753906 132.363281 178.746094 132.308594 L 177.339844 119.964844 C 179.585938 119.03125 183.085938 118.003906 187.632812 118.003906 C 192.175781 118.003906 195.675781 119.03125 197.921875 119.964844 C 197.921875 119.964844 197.292969 125.480469 196.515625 132.3125 C 196.507812 132.367188 196.503906 132.417969 196.496094 132.46875 C 195.230469 143.574219 193.578125 150.253906 193.578125 150.253906 C 193.1875 153.679688 195.652344 156.777344 199.078125 157.167969 C 202.503906 157.558594 205.601562 155.09375 205.992188 151.667969 L 208.066406 133.472656 C 229.785156 141.722656 245.234375 162.742188 245.234375 187.335938 C 245.234375 187.550781 245.230469 187.761719 245.230469 187.972656 Z M 242.742188 225.449219 C 237.539062 251.121094 214.824219 270.46875 187.632812 270.46875 C 160.433594 270.46875 137.722656 251.121094 132.519531 225.449219 Z M 289.539062 399.726562 C 289.539062 456.019531 85.722656 456.019531 85.722656 399.726562 C 85.722656 343.457031 131.339844 297.839844 187.632812 297.839844 C 243.898438 297.839844 289.539062 343.457031 289.539062 399.726562 Z M 702.011719 587.46875 L 710.917969 587.46875 C 715.226562 587.46875 718.726562 590.96875 718.726562 595.277344 C 718.726562 599.585938 715.226562 603.085938 710.917969 603.085938 L 577.90625 603.085938 C 573.597656 603.085938 570.097656 599.585938 570.097656 595.277344 C 570.097656 590.96875 573.597656 587.46875 577.90625 587.46875 L 586.8125 587.46875 C 586.8125 587.257812 586.808594 587.046875 586.808594 586.835938 C 586.808594 562.238281 602.257812 541.21875 623.976562 532.96875 L 626.050781 551.167969 C 626.441406 554.589844 629.539062 557.054688 632.964844 556.664062 C 636.390625 556.273438 638.851562 553.175781 638.460938 549.75 L 635.546875 531.972656 C 635.539062 531.917969 635.535156 531.859375 635.527344 531.804688 L 634.121094 519.464844 C 636.367188 518.527344 639.867188 517.503906 644.414062 517.503906 C 648.953125 517.503906 652.457031 518.527344 654.703125 519.464844 C 654.703125 519.464844 654.074219 524.976562 653.296875 531.808594 C 653.289062 531.863281 653.285156 531.914062 653.277344 531.964844 C 652.011719 543.074219 650.359375 549.75 650.359375 549.75 C 649.96875 553.175781 652.433594 556.273438 655.859375 556.664062 C 659.285156 557.054688 662.382812 554.589844 662.773438 551.167969 L 664.847656 532.96875 C 686.566406 541.21875 702.015625 562.238281 702.015625 586.835938 C 702.015625 587.046875 702.011719 587.257812 702.011719 587.46875 Z M 699.523438 624.945312 C 694.320312 650.617188 671.605469 669.964844 644.414062 669.964844 C 617.214844 669.964844 594.503906 650.617188 589.300781 624.945312 Z M 746.320312 799.222656 C 746.320312 855.515625 542.503906 855.515625 542.503906 799.222656 C 542.503906 742.953125 588.121094 697.335938 644.414062 697.335938 C 700.679688 697.335938 746.320312 742.953125 746.320312 799.222656 Z M 428.988281 546.054688 C 433.253906 541.789062 440.183594 541.789062 444.449219 546.054688 C 448.714844 550.320312 448.714844 557.25 444.445312 561.511719 C 439.632812 566.328125 433.101562 569.035156 426.292969 569.035156 C 419.484375 569.035156 412.953125 566.328125 408.140625 561.511719 L 319.871094 473.246094 C 315.054688 468.429688 312.351562 461.902344 312.351562 455.09375 C 312.351562 448.28125 315.054688 441.75 319.871094 436.9375 L 373.867188 382.9375 C 378.683594 378.125 385.214844 375.417969 392.023438 375.417969 C 398.832031 375.417969 405.363281 378.125 410.179688 382.9375 L 498.445312 471.207031 C 503.261719 476.023438 505.964844 482.550781 505.964844 489.359375 C 505.964844 496.171875 503.261719 502.699219 498.445312 507.515625 C 494.179688 511.78125 487.253906 511.78125 482.988281 507.515625 C 478.722656 503.25 478.722656 496.320312 482.988281 492.054688 C 483.703125 491.34375 484.105469 490.371094 484.105469 489.359375 C 484.105469 488.351562 483.703125 487.378906 482.988281 486.664062 L 394.71875 398.398438 C 394.003906 397.683594 393.035156 397.28125 392.023438 397.28125 C 391.011719 397.28125 390.042969 397.683594 389.328125 398.398438 L 335.328125 452.394531 C 334.613281 453.109375 334.210938 454.082031 334.210938 455.089844 C 334.210938 456.101562 334.613281 457.070312 335.328125 457.789062 L 423.597656 546.054688 C 424.3125 546.769531 425.28125 547.171875 426.292969 547.171875 C 427.304688 547.171875 428.273438 546.769531 428.988281 546.054688 Z M 409.964844 493.882812 C 405.699219 498.148438 398.769531 498.148438 394.503906 493.882812 C 390.238281 489.613281 390.238281 482.6875 394.503906 478.421875 C 399.320312 473.609375 405.851562 470.902344 412.660156 470.902344 C 419.46875 470.902344 426 473.609375 430.816406 478.421875 L 519.082031 566.691406 C 523.898438 571.503906 526.601562 578.035156 526.601562 584.84375 C 526.601562 591.65625 523.898438 598.183594 519.082031 603 L 465.082031 657 C 460.269531 661.8125 453.738281 664.519531 446.929688 664.515625 C 440.121094 664.515625 433.589844 661.8125 428.773438 657 L 340.507812 568.730469 C 335.691406 563.914062 332.988281 557.386719 332.988281 550.574219 C 332.988281 543.765625 335.691406 537.234375 340.507812 532.421875 C 344.773438 528.15625 351.699219 528.15625 355.964844 532.421875 C 360.230469 536.6875 360.230469 543.613281 355.964844 547.878906 C 355.25 548.59375 354.847656 549.5625 354.847656 550.574219 C 354.847656 551.585938 355.25 552.554688 355.964844 553.269531 L 444.234375 641.539062 C 444.949219 642.253906 445.917969 642.65625 446.929688 642.65625 C 447.941406 642.65625 448.910156 642.253906 449.625 641.539062 L 503.621094 587.542969 C 504.339844 586.824219 504.738281 585.855469 504.738281 584.84375 C 504.738281 583.835938 504.339844 582.863281 503.621094 582.148438 L 415.355469 493.882812 C 414.640625 493.167969 413.671875 492.765625 412.660156 492.765625 C 411.648438 492.765625 410.679688 493.167969 409.964844 493.882812 Z M 409.964844 493.882812 " fill-opacity="1" fill-rule="evenodd"/></g></svg>