<svg xmlns="http://www.w3.org/2000/svg" xmlns:xlink="http://www.w3.org/1999/xlink" width="1080" zoomAndPan="magnify" viewBox="0 0 810 989.999987" height="1320" preserveAspectRatio="xMidYMid meet" version="1.0"><defs><clipPath id="7b066435f7"><path d="M 40.5 164.671875 L 769.5 164.671875 L 769.5 825.421875 L 40.5 825.421875 Z M 40.5 164.671875 " clip-rule="nonzero"/></clipPath></defs><g clip-path="url(#7b066435f7)"><path fill="#cad401" d="M 504.179688 555.289062 C 499.730469 550.839844 492.519531 550.839844 488.070312 555.289062 L 484.734375 558.625 L 452.335938 526.222656 C 479.746094 488.613281 496.125 442.480469 496.125 392.484375 C 496.125 266.863281 393.925781 164.671875 268.3125 164.671875 C 142.699219 164.671875 40.5 266.863281 40.5 392.484375 C 40.5 518.105469 142.699219 620.296875 268.3125 620.296875 C 318.308594 620.296875 364.445312 603.914062 402.054688 576.503906 L 434.457031 608.90625 L 431.117188 612.242188 C 426.667969 616.691406 426.667969 623.902344 431.117188 628.351562 L 624.757812 821.992188 C 626.894531 824.125 629.792969 825.328125 632.8125 825.328125 L 666.984375 825.328125 C 670.003906 825.328125 672.902344 824.125 675.039062 821.992188 L 697.820312 799.210938 C 699.953125 797.074219 701.15625 794.183594 701.15625 791.15625 L 701.15625 756.984375 C 701.15625 753.957031 699.953125 751.066406 697.820312 748.929688 Z M 63.28125 392.484375 C 63.28125 279.433594 155.257812 187.453125 268.3125 187.453125 C 381.367188 187.453125 473.34375 279.433594 473.34375 392.484375 C 473.34375 505.535156 381.367188 597.515625 268.3125 597.515625 C 155.257812 597.515625 63.28125 505.535156 63.28125 392.484375 Z M 419.863281 562.097656 C 426.222656 556.410156 432.242188 550.390625 437.929688 544.03125 L 468.628906 574.734375 L 450.5625 592.796875 Z M 678.375 786.441406 L 662.269531 802.546875 L 637.527344 802.546875 L 455.277344 620.296875 L 496.125 579.449219 L 678.375 761.699219 Z M 406.414062 506.300781 C 405.933594 506.355469 405.457031 506.390625 404.984375 506.390625 C 399.328125 506.390625 394.414062 502.175781 393.699219 496.414062 L 388.113281 451.75 C 385.214844 428.589844 368.0625 409.226562 345.421875 403.5625 L 301.082031 392.484375 L 235.542969 392.484375 L 191.207031 403.5625 C 168.5625 409.226562 151.410156 428.589844 148.511719 451.75 L 142.925781 496.414062 C 142.140625 502.652344 136.390625 506.992188 130.210938 506.300781 C 123.972656 505.523438 119.542969 499.828125 120.324219 493.585938 L 125.90625 448.925781 C 129.957031 416.5 153.984375 389.390625 185.6875 381.472656 L 231.375 370.046875 C 232.28125 369.8125 233.210938 369.703125 234.140625 369.703125 L 302.484375 369.703125 C 303.414062 369.703125 304.34375 369.8125 305.25 370.046875 L 350.945312 381.472656 C 382.640625 389.390625 406.667969 416.5 410.71875 448.925781 L 416.300781 493.585938 C 417.082031 499.828125 412.652344 505.523438 406.414062 506.300781 Z M 199.878906 450.851562 L 188.488281 541.976562 C 187.773438 547.738281 182.859375 551.953125 177.203125 551.953125 C 176.730469 551.953125 176.253906 551.917969 175.773438 551.863281 C 169.535156 551.085938 165.105469 545.390625 165.886719 539.148438 L 177.277344 448.023438 C 178.050781 441.785156 183.765625 437.414062 189.992188 438.136719 C 196.230469 438.914062 200.660156 444.609375 199.878906 450.851562 Z M 359.347656 448.023438 L 370.738281 539.148438 C 371.519531 545.390625 367.089844 551.085938 360.851562 551.863281 C 360.371094 551.917969 359.894531 551.953125 359.421875 551.953125 C 353.765625 551.953125 348.851562 547.738281 348.136719 541.976562 L 336.746094 450.851562 C 335.964844 444.609375 340.394531 438.914062 346.632812 438.136719 C 352.785156 437.414062 358.570312 441.785156 359.347656 448.023438 Z M 348.046875 289.96875 C 348.046875 246.007812 312.277344 210.234375 268.3125 210.234375 C 224.347656 210.234375 188.578125 246.007812 188.578125 289.96875 C 188.578125 333.929688 224.347656 369.703125 268.3125 369.703125 C 312.277344 369.703125 348.046875 333.929688 348.046875 289.96875 Z M 268.3125 346.921875 C 236.910156 346.921875 211.359375 321.371094 211.359375 289.96875 C 211.359375 258.566406 236.910156 233.015625 268.3125 233.015625 C 299.714844 233.015625 325.265625 258.566406 325.265625 289.96875 C 325.265625 321.371094 299.714844 346.921875 268.3125 346.921875 Z M 769.5 506.390625 C 769.5 512.6875 764.398438 517.78125 758.109375 517.78125 L 610.03125 517.78125 C 603.742188 517.78125 598.640625 512.6875 598.640625 506.390625 C 598.640625 500.09375 603.742188 495 610.03125 495 L 758.109375 495 C 764.398438 495 769.5 500.09375 769.5 506.390625 Z M 553.078125 540.5625 C 571.921875 540.5625 587.25 525.234375 587.25 506.390625 C 587.25 487.546875 571.921875 472.21875 553.078125 472.21875 C 534.234375 472.21875 518.90625 487.546875 518.90625 506.390625 C 518.90625 525.234375 534.234375 540.5625 553.078125 540.5625 Z M 553.078125 495 C 559.355469 495 564.46875 500.105469 564.46875 506.390625 C 564.46875 512.675781 559.355469 517.78125 553.078125 517.78125 C 546.796875 517.78125 541.6875 512.675781 541.6875 506.390625 C 541.6875 500.105469 546.796875 495 553.078125 495 Z M 769.5 392.484375 C 769.5 398.78125 764.398438 403.875 758.109375 403.875 L 610.03125 403.875 C 603.742188 403.875 598.640625 398.78125 598.640625 392.484375 C 598.640625 386.1875 603.742188 381.09375 610.03125 381.09375 L 758.109375 381.09375 C 764.398438 381.09375 769.5 386.1875 769.5 392.484375 Z M 553.078125 426.65625 C 571.921875 426.65625 587.25 411.328125 587.25 392.484375 C 587.25 373.640625 571.921875 358.3125 553.078125 358.3125 C 534.234375 358.3125 518.90625 373.640625 518.90625 392.484375 C 518.90625 411.328125 534.234375 426.65625 553.078125 426.65625 Z M 553.078125 381.09375 C 559.355469 381.09375 564.46875 386.199219 564.46875 392.484375 C 564.46875 398.769531 559.355469 403.875 553.078125 403.875 C 546.796875 403.875 541.6875 398.769531 541.6875 392.484375 C 541.6875 386.199219 546.796875 381.09375 553.078125 381.09375 Z M 598.640625 278.578125 C 598.640625 272.28125 603.742188 267.1875 610.03125 267.1875 L 758.109375 267.1875 C 764.398438 267.1875 769.5 272.28125 769.5 278.578125 C 769.5 284.875 764.398438 289.96875 758.109375 289.96875 L 610.03125 289.96875 C 603.742188 289.96875 598.640625 284.875 598.640625 278.578125 Z M 553.078125 312.75 C 571.921875 312.75 587.25 297.421875 587.25 278.578125 C 587.25 259.734375 571.921875 244.40625 553.078125 244.40625 C 534.234375 244.40625 518.90625 259.734375 518.90625 278.578125 C 518.90625 297.421875 534.234375 312.75 553.078125 312.75 Z M 553.078125 267.1875 C 559.355469 267.1875 564.46875 272.292969 564.46875 278.578125 C 564.46875 284.863281 559.355469 289.96875 553.078125 289.96875 C 546.796875 289.96875 541.6875 284.863281 541.6875 278.578125 C 541.6875 272.292969 546.796875 267.1875 553.078125 267.1875 Z M 553.078125 267.1875 " fill-opacity="1" fill-rule="nonzero"/></g></svg>