<svg preserveAspectRatio="xMidYMid meet" data-bbox="-54.1 22.7 206.7 63.9" viewBox="-54.1 22.7 206.7 63.9" xmlns="http://www.w3.org/2000/svg" data-type="color" role="presentation" aria-hidden="true" aria-label="">
    <g>
        <path d="M-16.7 66.6c0 4.7-3.8 8.4-8.4 8.4-4.7 0-8.4-3.8-8.4-8.4 0-4.7 8.4-16.6 8.4-16.6s8.4 11.9 8.4 16.6" fill="#485345" data-color="1"></path>
        <path d="M-31.5 54.9c0 3.1-2.5 5.6-5.6 5.6-3.1 0-5.6-2.5-5.6-5.6 0-3.1 5.6-11.1 5.6-11.1s5.6 8 5.6 11.1" fill="#485345" data-color="1"></path>
        <path d="M-6.2 53.4c0 3.5-2.9 6.4-6.4 6.4-3.5 0-6.4-2.9-6.4-6.4 0-3.5 6.4-12.6 6.4-12.6s6.4 9.1 6.4 12.6" fill="#485345" data-color="1"></path>
        <path d="M-21.3 43.2c0 2.2-1.8 3.9-3.9 3.9-2.2 0-3.9-1.8-3.9-3.9 0-2.2 3.9-7.7 3.9-7.7s3.9 5.5 3.9 7.7" fill="#485345" data-color="1"></path>
        <path fill="#e41d29" d="m-45.7 28.1 23-5.4-10.4 21.2-12.6-15.8z" data-color="2"></path>
        <path d="m-22.4 28.9-2.3 4c12.1.1 21.8 9.9 21.8 22s-9.8 22-22 22c-12.1 0-22-9.8-22-22 0-10.7 7.6-19.5 17.7-21.5l2.8-4.5c-15.4.6-27.7 13.3-27.7 28.8 0 15.9 12.9 28.9 28.9 28.9 15.9 0 28.9-12.9 28.9-28.9 0-15.1-11.5-27.4-26.1-28.8" fill="#e41d29" data-color="2"></path>
        <path d="M26.2 67.3c0 .9-.6 1.6-1.6 1.6h-1v1.6h-.7v-4.7h1.5c1.2 0 1.8.6 1.8 1.5zm-.7 0c0-.6-.5-.9-.9-.9h-1v1.7h1c.5.1.9-.2.9-.8z" fill="#1d1d1b" data-color="3"></path>
        <path d="m30.5 70.5-1.2-1.6h-.7v1.6h-.7v-4.7h1.5c1.2 0 1.8.6 1.8 1.5 0 .7-.4 1.3-1.1 1.5l1.2 1.7h-.8zm-1.9-2.3h1c.5 0 .9-.3.9-.9 0-.6-.4-.9-.9-.9h-1v1.8z" fill="#1d1d1b" data-color="3"></path>
        <path d="M37.5 68.1c0 1.3-1.1 2.4-2.4 2.4-1.3 0-2.4-1.1-2.4-2.4s1.1-2.4 2.4-2.4c1.3 0 2.4 1.1 2.4 2.4zm-.7 0c0-1-.8-1.7-1.7-1.7-1 0-1.7.8-1.7 1.7 0 1 .8 1.7 1.7 1.7 1 .1 1.7-.7 1.7-1.7z" fill="#1d1d1b" data-color="3"></path>
        <path d="M43.1 68.1c0 1.3-.9 2.4-2.4 2.4h-1.4v-4.7h1.4c1.6 0 2.4 1 2.4 2.3zm-.7 0c0-.9-.6-1.7-1.6-1.7H40v3.4h.9c.9 0 1.5-.7 1.5-1.7z" fill="#1d1d1b" data-color="3"></path>
        <path d="M48.4 65.8v2.6c0 1.2-.6 2.1-1.8 2.1-1.3 0-1.8-.9-1.8-2.1v-2.6h.7v2.9c0 .7.4 1.2 1.1 1.2.7 0 1.1-.5 1.1-1.2v-2.9h.7z" fill="#1d1d1b" data-color="3"></path>
        <path d="m53.7 69.4.3.6c-.4.4-1 .6-1.5.6-1.4 0-2.5-1.1-2.5-2.4s1.1-2.4 2.5-2.4c.5 0 1.1.2 1.5.5l-.3.6c-.3-.3-.7-.5-1.2-.5-1 0-1.7.8-1.7 1.7s.8 1.7 1.7 1.7c.5.1.9-.1 1.2-.4z" fill="#1d1d1b" data-color="3"></path>
        <path d="M58.7 65.8v.7h-1.2v4h-.7v-4h-1.2v-.7h3.1z" fill="#1d1d1b" data-color="3"></path>
        <path d="M60.5 70.5v-4.7h.7v4.7h-.7z" fill="#1d1d1b" data-color="3"></path>
        <path d="M67.8 68.1c0 1.3-1.1 2.4-2.4 2.4s-2.4-1-2.4-2.4 1.1-2.4 2.4-2.4 2.4 1.1 2.4 2.4zm-.7 0c0-1-.8-1.7-1.7-1.7s-1.7.8-1.7 1.7c0 1 .8 1.7 1.7 1.7s1.7-.7 1.7-1.7z" fill="#1d1d1b" data-color="3"></path>
        <path d="M70.2 67.3v3.2h-.7v-4.8l3.3 3.3v-3.2h.7v4.8l-3.3-3.3z" fill="#1d1d1b" data-color="3"></path>
        <path d="M79.5 66.5v1.3h1.7v.7h-1.7v1.3h2v.7h-2.7v-4.7h2.7v.7h-2z" fill="#1d1d1b" data-color="3"></path>
        <path d="M84.1 67.3v3.2h-.7v-4.8l3.3 3.3v-3.2h.7v4.8l-3.3-3.3z" fill="#1d1d1b" data-color="3"></path>
        <path d="M93.9 68.1c0 1.3-1 2.4-2.3 2.4-1.3 0-2.4-1.1-2.4-2.4s1.1-2.4 2.4-2.4c1 0 1.7.5 2.1 1.3l-.7.2c-.3-.5-.8-.8-1.4-.8-1 0-1.7.8-1.7 1.7s.8 1.7 1.7 1.7c.9 0 1.4-.6 1.6-1.3h-1.8v-.7h2.5v.3z" fill="#1d1d1b" data-color="3"></path>
        <path d="M95.7 70.5v-4.7h.7v4.7h-.7z" fill="#1d1d1b" data-color="3"></path>
        <path d="M99.1 67.3v3.2h-.7v-4.8l3.3 3.3v-3.2h.7v4.8l-3.3-3.3z" fill="#1d1d1b" data-color="3"></path>
        <path d="M105.1 66.5v1.3h1.7v.7h-1.7v1.3h2v.7h-2.7v-4.7h2.7v.7h-2z" fill="#1d1d1b" data-color="3"></path>
        <path d="M109.7 66.5v1.3h1.7v.7h-1.7v1.3h2v.7H109v-4.7h2.7v.7h-2z" fill="#1d1d1b" data-color="3"></path>
        <path d="m116.3 70.5-1.2-1.6h-.7v1.6h-.7v-4.7h1.5c1.2 0 1.8.6 1.8 1.5 0 .7-.4 1.3-1.1 1.5l1.2 1.7h-.8zm-1.9-2.3h1c.5 0 .9-.3.9-.9 0-.6-.4-.9-.9-.9h-1v1.8z" fill="#1d1d1b" data-color="3"></path>
        <path d="M118.8 70.5v-4.7h.7v4.7h-.7z" fill="#1d1d1b" data-color="3"></path>
        <path d="M122.2 67.3v3.2h-.7v-4.8l3.3 3.3v-3.2h.7v4.8l-3.3-3.3z" fill="#1d1d1b" data-color="3"></path>
        <path d="M132 68.1c0 1.3-1 2.4-2.3 2.4-1.3 0-2.4-1.1-2.4-2.4s1.1-2.4 2.4-2.4c1 0 1.7.5 2.1 1.3l-.7.2c-.3-.5-.8-.8-1.4-.8-1 0-1.7.8-1.7 1.7s.8 1.7 1.7 1.7c.9 0 1.4-.6 1.6-1.3h-1.8v-.7h2.5v.3z" fill="#1d1d1b" data-color="3"></path>
        <path d="M40.3 47.6c0 4.6-3.4 7.9-8.1 7.9H29v6h-6V39.8h9.3c4.6 0 8 3.3 8 7.8zm-6.2 0c0-1.5-1-2.6-2.6-2.6H29v5.3h2.5c1.6 0 2.6-1.1 2.6-2.7z" fill="#485345" data-color="1"></path>
        <path d="M53.7 44.7V50h-2.2c-2.1 0-2.9.9-2.9 3v8.6h-5.8V44.7h3.9l.9 1.9c1.2-1.4 2.6-1.9 4.6-1.9h1.5z" fill="#485345" data-color="1"></path>
        <path d="M54.6 53.1c0-5.2 3.9-9 9.4-9s9.4 3.7 9.4 9c0 5.2-4 9-9.4 9s-9.4-3.8-9.4-9zm13.1.1c0-2.2-1.5-3.8-3.6-3.8s-3.6 1.5-3.6 3.8c0 2.2 1.5 3.8 3.6 3.8 2.1-.1 3.6-1.6 3.6-3.8z" fill="#485345" data-color="1"></path>
        <path d="M94 38.7v22.9h-4.3l-.5-1.2c-1.4 1.2-3.1 1.8-5.1 1.8-5.2 0-8.8-3.8-8.8-9s3.7-9 8.8-9c1.6 0 3 .4 4.2 1.2v-6.7H94zm-5.4 14.4c0-2.2-1.6-3.8-3.8-3.8-2.2 0-3.8 1.7-3.8 3.8 0 2.2 1.6 3.9 3.8 3.9 2.2 0 3.8-1.7 3.8-3.9z" fill="#485345" data-color="1"></path>
        <path d="M112 56.4v5.2H97.8V39.8h14V45h-8v3.2h7.2v4.9h-7.2v3.3h8.2z" fill="#485345" data-color="1"></path>
        <path d="M131.7 51.3v10.3h-5.8v-9.5c0-2-.7-2.9-2.2-2.9-1.8 0-2.8 1.3-2.8 3.4v9h-5.8V44.7h4.1l.8 1.7c1.3-1.4 3.1-2.2 5.3-2.2 3.9 0 6.4 2.8 6.4 7.1z" fill="#485345" data-color="1"></path>
        <path d="M152.6 44.7v15c0 5.3-3.5 8.6-9 8.6-4.8 0-8.1-2.4-8.9-6.4h5.6c.4 1.1 1.8 1.7 3.2 1.7 1.9 0 3.5-1.2 3.5-3.2v-.5c-1.3.8-2.8 1.3-4.4 1.3-4.8 0-8.4-3.6-8.4-8.5 0-4.8 3.6-8.5 8.4-8.5 2 0 3.9.7 5.3 2l.7-1.4 4-.1zm-5.4 8c0-2.1-1.5-3.7-3.6-3.7s-3.6 1.5-3.6 3.7c0 2.1 1.5 3.7 3.6 3.7 2.1-.1 3.6-1.6 3.6-3.7z" fill="#485345" data-color="1"></path>
    </g>
</svg>